<?xml version="1.0" encoding="UTF-8" standalone="no"?>
<svg
   xmlns:dc="http://purl.org/dc/elements/1.1/"
   xmlns:cc="http://creativecommons.org/ns#"
   xmlns:rdf="http://www.w3.org/1999/02/22-rdf-syntax-ns#"
   xmlns:svg="http://www.w3.org/2000/svg"
   xmlns="http://www.w3.org/2000/svg"
   xmlns:sodipodi="http://sodipodi.sourceforge.net/DTD/sodipodi-0.dtd"
   xmlns:inkscape="http://www.inkscape.org/namespaces/inkscape"
   version="1.1"
   x="0px"
   y="0px"
   viewBox="0 0 100 125"
   enable-background="new 0 0 100 100"
   xml:space="preserve"
   id="svg2"
   inkscape:version="0.91 r13725"
   sodipodi:docname="upload_icon.svg"><metadata
     id="metadata16"><rdf:RDF><cc:Work
         rdf:about=""><dc:format>image/svg+xml</dc:format><dc:type
           rdf:resource="http://purl.org/dc/dcmitype/StillImage" /><dc:title></dc:title></cc:Work></rdf:RDF></metadata><defs
     id="defs14" /><sodipodi:namedview
     pagecolor="#ffffff"
     bordercolor="#666666"
     borderopacity="1"
     objecttolerance="10"
     gridtolerance="10"
     guidetolerance="10"
     inkscape:pageopacity="0"
     inkscape:pageshadow="2"
     inkscape:window-width="1366"
     inkscape:window-height="719"
     id="namedview12"
     showgrid="false"
     inkscape:zoom="1.4142136"
     inkscape:cx="-117.48964"
     inkscape:cy="156.65484"
     inkscape:window-x="0"
     inkscape:window-y="25"
     inkscape:window-maximized="1"
     inkscape:current-layer="svg2" /><text
     x="0"
     y="115"
     fill="#000000"
     font-size="5px"
     font-weight="bold"
     font-family="'Helvetica Neue', Helvetica, Arial-Unicode, Arial, Sans-serif"
     id="text8">Created by artworkbean</text>
<text
     x="0"
     y="120"
     fill="#000000"
     font-size="5px"
     font-weight="bold"
     font-family="'Helvetica Neue', Helvetica, Arial-Unicode, Arial, Sans-serif"
     id="text10">from the Noun Project</text>
<rect
     style="opacity:1;fill:#f2dfdf;fill-opacity:1;stroke:#67094b;stroke-width:4;stroke-linecap:round;stroke-linejoin:round;stroke-miterlimit:4;stroke-dasharray:none;stroke-opacity:1"
     id="rect4165"
     width="300"
     height="300"
     x="150.42372"
     y="-89.512711"
     ry="21.186441" /><path
     style="fill:#67094b;fill-opacity:1;fill-rule:nonzero"
     d="m -221.14662,-105.63861 c -0.13296,0 -0.26592,0 -0.3324,0.0665 -0.39887,0.0665 -0.73127,0.26592 -0.93071,0.46536 l -33.25156,33.358399 c -0.86423,0.598314 -0.93071,1.996755 -0.19943,2.728028 0.73127,0.800127 2.12734,0.733648 2.7945,-0.132959 l 30.06055,-29.960829 c 0,0.731273 0.0665,1.664358 0.0665,2.927466 0,2.796883 0,6.723914 0.0665,11.451073 0,9.387837 -0.0665,21.705516 -0.0665,34.089674 -0.0665,24.768315 -0.0665,49.3348195 -0.0665,49.3348195 0,0.999565 0.86423,1.930276 1.86142,1.930276 0.9972,0 1.86143,-0.933086 1.86143,-1.930276 0,0 0.0665,-24.5688785 0.0665,-49.3348195 0,-12.386533 0.0665,-24.77069 0.0665,-34.158528 0,-4.724784 -0.0665,-8.587711 -0.0665,-11.384593 0,-1.331962 -0.0665,-2.262673 -0.0665,-3.0628 l 30.12703,30.096163 c 0.66242,0.864232 1.99438,0.933086 2.79213,0.132959 0.73365,-0.733647 0.66479,-2.129714 -0.19944,-2.728029 l -33.25156,-33.358404 c -0.33477,-0.32764 -0.80012,-0.52946 -1.33196,-0.52946 l 0,0 z"
     id="path4172"
     inkscape:connector-curvature="0" /><path
     style="fill:#67094b;fill-opacity:1;fill-rule:nonzero"
     d="m -281.86603,-26.471169 c -7.91342,0 -14.29782,6.457996 -14.29782,14.380913 l 0,31.159833 c 0,7.922917 6.3844,14.383288 14.29782,14.383288 l 121.50293,0 c 7.91579,0 14.36667,-6.460371 14.36667,-14.383288 l 0,-31.162207 c 0,-7.922917 -6.45088,-14.380914 -14.36667,-14.380914 l -24.14151,0 c -0.99719,0 -1.86142,0.933086 -1.86142,1.930276 0,0.999565 0.86423,1.863797 1.86142,1.863797 l 24.14151,0 c 5.85256,0 10.57497,4.660679 10.57497,10.586841 l 0,31.159833 c 0,5.926161 -4.72241,10.650945 -10.57497,10.650945 l -121.50293,0 c -5.85256,0 -10.57497,-4.724784 -10.57497,-10.650945 l 0,-31.159833 c 0,-5.926162 4.72241,-10.586841 10.57497,-10.586841 l 24.14151,0 c 0.99719,0 1.86142,-0.864232 1.86142,-1.863797 0,-0.99719 -0.86423,-1.930276 -1.86142,-1.930276 l -24.14151,0 0,0.0024 z"
     id="path6"
     inkscape:connector-curvature="0" /></svg>