<?xml version="1.0" encoding="UTF-8" standalone="no"?>
<svg
   xmlns:dc="http://purl.org/dc/elements/1.1/"
   xmlns:cc="http://creativecommons.org/ns#"
   xmlns:rdf="http://www.w3.org/1999/02/22-rdf-syntax-ns#"
   xmlns:svg="http://www.w3.org/2000/svg"
   xmlns="http://www.w3.org/2000/svg"
   xmlns:sodipodi="http://sodipodi.sourceforge.net/DTD/sodipodi-0.dtd"
   xmlns:inkscape="http://www.inkscape.org/namespaces/inkscape"
   version="1.1"
   x="0px"
   y="0px"
   viewBox="0 0 100 125"
   enable-background="new 0 0 100 100"
   xml:space="preserve"
   id="svg2"
   inkscape:version="0.91 r13725"
   sodipodi:docname="noun_125166_cc.svg"><metadata
     id="metadata16"><rdf:RDF><cc:Work
         rdf:about=""><dc:format>image/svg+xml</dc:format><dc:type
           rdf:resource="http://purl.org/dc/dcmitype/StillImage" /><dc:title></dc:title></cc:Work></rdf:RDF></metadata><defs
     id="defs14" /><sodipodi:namedview
     pagecolor="#ffffff"
     bordercolor="#666666"
     borderopacity="1"
     objecttolerance="10"
     gridtolerance="10"
     guidetolerance="10"
     inkscape:pageopacity="0"
     inkscape:pageshadow="2"
     inkscape:window-width="1366"
     inkscape:window-height="719"
     id="namedview12"
     showgrid="false"
     inkscape:zoom="1.888"
     inkscape:cx="15.042373"
     inkscape:cy="55.084746"
     inkscape:window-x="0"
     inkscape:window-y="25"
     inkscape:window-maximized="1"
     inkscape:current-layer="svg2" /><g
     id="g4"><path
       d="M49.972,20.709c-0.056,0-0.112,0-0.14,0.028c-0.168,0.028-0.308,0.112-0.392,0.196l-14.005,14.05   c-0.364,0.252-0.392,0.841-0.084,1.149c0.308,0.337,0.896,0.309,1.177-0.056l12.661-12.619c0,0.308,0.028,0.701,0.028,1.233   c0,1.178,0,2.832,0.028,4.823c0,3.954-0.028,9.142-0.028,14.358c-0.028,10.432-0.028,20.779-0.028,20.779   c0,0.421,0.364,0.813,0.784,0.813s0.784-0.393,0.784-0.813c0,0,0.028-10.348,0.028-20.779c0-5.217,0.028-10.433,0.028-14.387   c0-1.99-0.028-3.617-0.028-4.795c0-0.561-0.028-0.953-0.028-1.29l12.689,12.676c0.279,0.364,0.84,0.393,1.176,0.056   c0.309-0.309,0.28-0.897-0.084-1.149l-14.005-14.05C50.392,20.794,50.196,20.709,49.972,20.709L49.972,20.709z M24.398,54.053   c-3.333,0-6.022,2.72-6.022,6.057v13.124c0,3.337,2.689,6.058,6.022,6.058h51.175c3.334,0,6.051-2.721,6.051-6.058V60.109   c0-3.337-2.717-6.057-6.051-6.057H65.405c-0.42,0-0.784,0.393-0.784,0.813c0,0.421,0.364,0.785,0.784,0.785h10.168   c2.465,0,4.454,1.963,4.454,4.459v13.124c0,2.496-1.989,4.486-4.454,4.486H24.398c-2.465,0-4.454-1.99-4.454-4.486V60.109   c0-2.496,1.989-4.459,4.454-4.459h10.168c0.42,0,0.784-0.364,0.784-0.785c0-0.42-0.364-0.813-0.784-0.813H24.398L24.398,54.053z"
       id="path6" /></g><text
     x="0"
     y="115"
     fill="#000000"
     font-size="5px"
     font-weight="bold"
     font-family="'Helvetica Neue', Helvetica, Arial-Unicode, Arial, Sans-serif"
     id="text8">Created by artworkbean</text>
<text
     x="0"
     y="120"
     fill="#000000"
     font-size="5px"
     font-weight="bold"
     font-family="'Helvetica Neue', Helvetica, Arial-Unicode, Arial, Sans-serif"
     id="text10">from the Noun Project</text>
</svg>